<svg xmlns="http://www.w3.org/2000/svg" version="1.1" xmlns:xlink="http://www.w3.org/1999/xlink" xmlns:svgjs="http://svgjs.dev/svgjs" width="2000" height="1252" viewBox="0 0 2000 1252"><g transform="matrix(1,0,0,1,-1.2121212121212466,-2.01935483870966)"><svg viewBox="0 0 396 248" data-background-color="#ede1d1" preserveAspectRatio="xMidYMid meet" height="1252" width="2000" xmlns="http://www.w3.org/2000/svg" xmlns:xlink="http://www.w3.org/1999/xlink"><g id="tight-bounds" transform="matrix(1,0,0,1,0.2400000000000091,0.4000000000000057)"><svg viewBox="0 0 395.52 247.2" height="247.2" width="395.52"><g><svg></svg></g><g><svg viewBox="0 0 395.52 247.2" height="247.2" width="395.52"><g transform="matrix(1,0,0,1,75.54432,104.11747482714469)"><svg viewBox="0 0 244.43135999999998 38.96505034571062" height="38.96505034571062" width="244.43135999999998"><g><svg viewBox="0 0 244.43135999999998 38.96505034571062" height="38.96505034571062" width="244.43135999999998"><g><svg viewBox="0 0 244.43135999999998 38.96505034571062" height="38.96505034571062" width="244.43135999999998"><g><svg viewBox="0 0 244.43135999999998 38.96505034571062" height="38.96505034571062" width="244.43135999999998"><g id="textblocktransform"><svg viewBox="0 0 244.43135999999998 38.96505034571062" height="38.96505034571062" width="244.43135999999998" id="textblock"><g><svg viewBox="0 0 244.43135999999998 38.96505034571062" height="38.96505034571062" width="244.43135999999998"><g transform="matrix(1,0,0,1,0,0)"><svg width="244.43135999999998" viewBox="0 -24.4 156.19 24.9" height="38.96505034571062" data-palette-color="#6a704c"><path d="M2.05-22.9L0-22.9 0-23.8 14.95-23.8 14.95-22.9 11.8-22.9 17.8-6.3 23.2-22.9 19.85-22.9 19.85-23.8 26.6-23.8 26.6-22.9 24.4-22.9 17 0 11.3 0 2.05-22.9ZM37.6-11.75L37.6-11.75 39.05-11.75 39.05-15.6Q39.05-20.35 38.52-21.98 38-23.6 36.5-23.6L36.5-23.6Q35.6-23.6 34.87-23.13 34.15-22.65 34.15-21.83 34.15-21 34.45-20.15L34.45-20.15 35.7-20.15Q36.1-19.1 36.1-17.63 36.1-16.15 34.85-15.08 33.6-14 31.7-14L31.7-14Q27.4-14 27.4-18.15L27.4-18.15Q27.4-24.3 37.85-24.3L37.85-24.3Q43.8-24.3 46.07-22.28 48.35-20.25 48.35-14.85L48.35-14.85 48.35-4.7Q48.35-2.1 49.8-2.1L49.8-2.1Q51.5-2.1 51.8-7.25L51.8-7.25 52.55-7.2Q52.35-2.8 50.9-1.15 49.45 0.5 46.15 0.5L46.15 0.5Q40.15 0.5 39.25-3.2L39.25-3.2Q38.6-1.3 37.3-0.4 36 0.5 33.5 0.5L33.5 0.5Q26.1 0.5 26.1-5.55L26.1-5.55Q26.1-9.1 28.92-10.43 31.75-11.75 37.6-11.75ZM35.6-5.6Q35.6-3 35.87-2.25 36.15-1.5 36.92-1.5 37.7-1.5 38.37-2.78 39.05-4.05 39.05-6.3L39.05-6.3 39.05-10.95 38.7-10.95Q35.6-10.95 35.6-6.4L35.6-6.4 35.6-5.6ZM54.8 0.5L54.2 0.5 54.2-8.45 54.8-8.45Q56.09-4.1 58.3-2.35 60.5-0.6 63.8-0.6L63.8-0.6Q68.9-0.6 68.9-3.85L68.9-3.85Q68.9-5.25 67.65-5.95L67.65-5.95Q65.7-7.05 62.65-7.65L62.65-7.65Q59.25-8.55 56.95-10.05L56.95-10.05Q54.2-11.85 54.2-15.75 54.2-19.65 56.59-21.98 59-24.3 63-24.3L63-24.3Q65.45-24.3 68.05-23.15L68.05-23.15Q69-22.75 69.5-22.75 70-22.75 70.34-23.1 70.7-23.45 71.2-24.4L71.2-24.4 71.75-24.4 71.75-16.75 71.15-16.75Q68.59-23.25 63.25-23.25L63.25-23.25Q60.9-23.25 59.75-22.43 58.59-21.6 58.59-20.35L58.59-20.35Q58.59-19.6 58.95-19.18 59.3-18.75 59.5-18.55 59.7-18.35 60.15-18.13 60.59-17.9 60.9-17.78 61.2-17.65 61.82-17.45 62.45-17.25 62.75-17.2L62.75-17.2Q66.15-16.35 67.65-15.73 69.15-15.1 70.5-14.2L70.5-14.2Q73.25-12.3 73.25-8.08 73.25-3.85 70.75-1.68 68.25 0.5 63.9 0.5L63.9 0.5Q60.8 0.5 57.9-0.95L57.9-0.95Q57.3-1.35 56.95-1.35L56.95-1.35Q55.84-1.35 54.8 0.5L54.8 0.5ZM88.74-23.4L88.74-23.4Q86.54-23.4 85.59-21 84.64-18.6 84.64-13.05L84.64-13.05 84.64-10.45Q84.64-5.5 85.74-3.35 86.84-1.2 89.79-1.2 92.74-1.2 94.49-3.2 96.24-5.2 96.74-7.75L96.74-7.75 97.64-7.65Q96.69-3.35 94.14-1.45L94.14-1.45Q91.54 0.5 86.99 0.5L86.99 0.5Q81.19 0.5 78.09-2.63 74.99-5.75 74.99-11.78 74.99-17.8 78.52-21.05 82.04-24.3 88.34-24.3L88.34-24.3Q92.79-24.3 95.14-22.58 97.49-20.85 97.49-18.25 97.49-15.65 96.37-14.45 95.24-13.25 93.27-13.25 91.29-13.25 90.09-14.3 88.89-15.35 88.89-17.4L88.89-17.4Q88.89-18.3 89.14-19.2L89.14-19.2 90.79-19.2Q91.14-20.2 91.14-21L91.14-21Q91.14-23.4 88.74-23.4ZM115.04-9.85L115.04-9.85 115.04-14.1Q115.04-18.95 114.52-21.18 113.99-23.4 112.09-23.4L112.09-23.4Q110.99-23.4 110.32-22.78 109.64-22.15 109.34-20.7L109.34-20.7Q108.89-18.45 108.89-13.85L108.89-13.85 108.89-9.95Q108.89-4.5 109.22-3.4 109.54-2.3 109.89-1.6L109.89-1.6Q110.44-0.4 112.04-0.4L112.04-0.4Q113.99-0.4 114.59-2.65L114.59-2.65Q115.04-4.25 115.04-9.85ZM111.94 0.5Q105.69 0.5 102.49-2.7 99.29-5.9 99.29-11.88 99.29-17.85 102.72-21.08 106.14-24.3 112.34-24.3 118.54-24.3 121.59-21.33 124.64-18.35 124.64-12.25L124.64-12.25Q124.64 0.5 111.94 0.5L111.94 0.5ZM126.14-22.9L126.14-23.8 138.19-23.8 138.19-19.2Q138.99-21.5 140.64-22.9 142.29-24.3 145.64-24.3L145.64-24.3Q153.39-24.3 153.39-15.95L153.39-15.95 153.39-0.9 156.19-0.9 156.19 0 142.04 0 142.04-0.9 144.09-0.9 144.09-17.15Q144.09-20.15 143.69-21.03 143.29-21.9 142.24-21.9L142.24-21.9Q140.64-21.9 139.41-19.8 138.19-17.7 138.19-14.7L138.19-14.7 138.19-0.9 140.34-0.9 140.34 0 126.14 0 126.14-0.9 128.89-0.9 128.89-22.9 126.14-22.9Z" opacity="1" transform="matrix(1,0,0,1,0,0)" fill="#ffffff" class="wordmark-text-0" data-fill-palette-color="primary" id="text-0"></path></svg></g></svg></g></svg></g></svg></g></svg></g></svg></g></svg></g><g><path d="M0 123.6c0-68.262 55.338-123.6 123.6-123.6 60.022 0 110.051 42.784 121.255 99.518l-1.791 0c-11.178-55.758-60.416-97.761-119.464-97.761-67.292 0-121.843 54.551-121.843 121.843 0 67.292 54.551 121.843 121.843 121.843 59.048 0 108.285-42.003 119.464-97.761l1.791 0c-11.204 56.735-61.233 99.518-121.255 99.518-68.262 0-123.6-55.338-123.6-123.6z" fill="#ffffff" stroke="transparent" data-fill-palette-color="tertiary"></path></g></svg></g><defs></defs></svg><rect width="395.52" height="247.2" fill="none" stroke="none" visibility="hidden"></rect></g></svg></g></svg>